<svg version="1.1" xml:space="preserve" xmlns="http://www.w3.org/2000/svg"><path d="m4.2227 2.3184-1.8301 1.4746 1.957 2.4277v18.105h2.3496v-8.2246h5.6152l4.9844 6.1836 1.8301-1.4766-3.7949-4.707h0.00586l-1.8945-2.3496h-0.005859l-5.6836-7.0508h0.0058594l-1.8965-2.3516h-0.0058594l-1.6367-2.0312zm4.6602 2.0312 1.8965 2.3516h4.7344l2.3496 3.5254-1.9199 2.8789 1.5098 1.873 3.3477-4.752-3.6426-5.1719c-0.15669-0.21544-0.35287-0.38637-0.58789-0.51367-0.23501-0.1273-0.48947-0.19141-0.76367-0.19141h-6.9238zm-2.1836 4.7852 3.7207 4.6172h-3.7207v-4.6172z"/></svg>
