<svg version="1.1" xmlns="http://www.w3.org/2000/svg">
 <path d="m9.6806 18v-2h1.55l2.625-3-2.625-3h-1.65l-1.6 8.6q-0.2 1.125-0.925 1.7625t-1.85 0.6375-1.825-0.6-0.7-1.6q0-0.8 0.425-1.2875t1.075-0.4875q0.625 0 1.0625 0.425t0.4375 1.025q0 0.125-0.0125 0.225t-0.0375 0.225q0.125-0.025 0.2125-0.1375t0.1375-0.3125l1.55-8.475h-2.85v-2h3.225l0.525-2.85q0.175-0.95 0.9375-1.55t1.8125-0.6q1.1 0 1.8 0.65t0.7 1.625q0 0.75-0.425 1.2375t-1.075 0.4875q-0.625 0-1.0625-0.425t-0.4375-1.05q0-0.125 0.0125-0.225t0.0375-0.225q-0.15 0.05-0.225 0.15t-0.125 0.3l-0.425 2.475h4.725v2h-0.8l1.3 1.475 1.3-1.475h-0.8v-2h5v2h-1.55l-2.625 3 2.625 3h1.55v2h-5v-2h0.8l-1.3-1.5-1.3 1.5h0.8v2z" stroke-width=".025"/>
</svg>
