<svg version="1.1" xmlns="http://www.w3.org/2000/svg">
 <path d="m9.6406 2a1 1 0 0 0-1 0.67969l-0.56055 1.8301a1 1 0 0 1-1.1504 0.66016l-1.9297-0.38086a1 1 0 0 0-1 0.48047l-2 3.4609a1 1 0 0 0 0.099609 1.1699l1.2695 1.4395a1 1 0 0 1 0 1.3203l-1.2695 1.4395a1 1 0 0 0-0.099609 1.1699l2 3.4609a1 1 0 0 0 1.0703 0.48047l1.8789-0.38086a1 1 0 0 1 1.1504 0.66016l0.61133 1.8301a1 1 0 0 0 1 0.67969h4a1 1 0 0 0 0.94922-0.67969l0.60938-1.8301a1 1 0 0 1 1.1504-0.66016l1.8809 0.38086a1 1 0 0 0 1.0684-0.48047l2-3.4609a1 1 0 0 0-0.11914-1.1699l-1.3496-1.4395a1 1 0 0 1 0-1.3203l1.2793-1.4395a1 1 0 0 0 0.12109-1.1699l-2-3.4609a1 1 0 0 0-1.0703-0.48047l-1.8809 0.38086a1 1 0 0 1-1.1504-0.66016l-0.60938-1.8301a1 1 0 0 0-0.94922-0.67969h-4zm2 6a4 4 0 0 1 4 4 4 4 0 0 1-4 4 4 4 0 0 1-4-4 4 4 0 0 1 4-4z"/>
</svg>
