<svg version="1.1" xml:space="preserve" xmlns="http://www.w3.org/2000/svg"><path d="m18.018 3.2754v1.334h4v1.332h-2.668c-0.37778 0-0.69366 0.12726-0.94922 0.38281-0.25556 0.25556-0.38281 0.57339-0.38281 0.95117v2.666h5.332v-1.332h-4v-1.334h2.668c0.37778 0 0.69366-0.12726 0.94922-0.38281 0.25555-0.25555 0.38281-0.57339 0.38281-0.95117v-1.332c0-0.37778-0.12725-0.69562-0.38281-0.95117-0.25556-0.25556-0.57144-0.38281-0.94922-0.38281h-4zm-12.525 3.1387 3.6016 5.6309-3.873 6.0918h2.2422l2.8438-4.541h0.085937l2.8457 4.541h2.2402l-3.8945-6.0918 3.623-5.6309h-2.2402l-2.5742 4.1875h-0.085937l-2.5938-4.1875h-2.2207z" stroke-width=".033333"/></svg>
