<svg version="1.1" xmlns="http://www.w3.org/2000/svg">
 <path d="m3 2a1 1 0 0 0-1 1v9a1 1 0 0 0 0.28906 0.71094l2.7969 2.791 1.4141-1.4141-2.5-2.498v-7.5898h7.5898l2.5 2.498 1.4102-1.4102 0.001953-0.0019531-2.791-2.7969a1 1 0 0 0-0.71094-0.28906h-9zm17.584 0.83008-17.754 17.754 1.4141 1.4141 0.69336-0.69531 2.9766-2.9766 2.7969 2.793a3 3 0 0 0 4.2383 0l6.1699-6.1191a3 3 0 0 0 0-4.2402v-0.048828l-2.0977-2.1016h-0.001953l-0.69336-0.69531 2.9766-2.9766 0.69531-0.69336-1.4141-1.4141zm-13.084 3.1699a1.5 1.5 0 1 0 1.5 1.5 1.5 1.5 0 0 0-1.5-1.5zm9.416 3.3242 0.69336 0.69336v0.003906l0.001953-0.001953 2.0996 2.0996a1 1 0 0 1 0.28906 0.71094 1 1 0 0 1-0.28906 0.69922l-6.1816 6.1699a1 1 0 0 1-1.4102 0l-2.791-2.7871 7.5859-7.5859 0.001954-0.0019531z"/>
</svg>
